<svg width="58" height="58" viewBox="0 0 58 58" fill="none" xmlns="http://www.w3.org/2000/svg" xmlns:xlink="http://www.w3.org/1999/xlink">
<path d="M38,26.425L34.043,27.012L38,26.425ZM29.575,18L28.988,21.957L29.575,18ZM41.75,10.25C39.541,10.25 37.75,12.041 37.75,14.25C37.75,16.459 39.541,18.25 41.75,18.25L41.75,10.25ZM41.775,18.25C43.984,18.25 45.775,16.459 45.775,14.25C45.775,12.041 43.984,10.25 41.775,10.25L41.775,18.25ZM15.5,7L40.5,7L40.5,-1L15.5,-1L15.5,7ZM40.5,7C45.194,7 49,10.806 49,15.5L57,15.5C57,6.387 49.613,-1 40.5,-1L40.5,7ZM49,15.5L49,40.5L57,40.5L57,15.5L49,15.5ZM49,40.5C49,45.194 45.194,49 40.5,49L40.5,57C49.613,57 57,49.613 57,40.5L49,40.5ZM40.5,49L15.5,49L15.5,57L40.5,57L40.5,49ZM15.5,49C10.806,49 7,45.194 7,40.5L-1,40.5C-1,49.613 6.387,57 15.5,57L15.5,49ZM7,40.5L7,15.5L-1,15.5L-1,40.5L7,40.5ZM7,15.5C7,10.806 10.806,7 15.5,7L15.5,-1C6.387,-1 -1,6.387 -1,15.5L7,15.5ZM34.043,27.012C34.228,28.26 34.015,29.535 33.434,30.655L40.535,34.34C41.891,31.726 42.389,28.751 41.957,25.838L34.043,27.012ZM33.434,30.655C32.853,31.775 31.933,32.684 30.806,33.251L34.402,40.397C37.033,39.073 39.179,36.954 40.535,34.34L33.434,30.655ZM30.806,33.251C29.678,33.819 28.401,34.016 27.155,33.816L25.884,41.714C28.791,42.182 31.772,41.721 34.402,40.397L30.806,33.251ZM27.155,33.816C25.909,33.615 24.758,33.027 23.866,32.134L18.209,37.791C20.291,39.874 22.977,41.246 25.884,41.714L27.155,33.816ZM23.866,32.134C22.973,31.242 22.385,30.091 22.184,28.845L14.286,30.116C14.754,33.023 16.126,35.709 18.209,37.791L23.866,32.134ZM22.184,28.845C21.984,27.599 22.181,26.322 22.749,25.194L15.603,21.598C14.279,24.228 13.818,27.209 14.286,30.116L22.184,28.845ZM22.749,25.194C23.316,24.067 24.225,23.147 25.345,22.566L21.66,15.465C19.046,16.821 16.927,18.967 15.603,21.598L22.749,25.194ZM25.345,22.566C26.465,21.985 27.74,21.772 28.988,21.957L30.162,14.043C27.249,13.611 24.274,14.109 21.66,15.465L25.345,22.566ZM28.988,21.957C30.262,22.146 31.441,22.739 32.351,23.649L38.008,17.992C35.884,15.868 33.133,14.484 30.162,14.043L28.988,21.957ZM32.351,23.649C33.261,24.559 33.854,25.738 34.043,27.012L41.957,25.838C41.516,22.867 40.132,20.116 38.008,17.992L32.351,23.649ZM41.75,18.25L41.775,18.25L41.775,10.25L41.75,10.25L41.75,18.25Z" fill="#FFFFFF"/>
</svg>
