<svg width="106" height="46" viewBox="0 0 106 46" fill="none" xmlns="http://www.w3.org/2000/svg" xmlns:xlink="http://www.w3.org/1999/xlink">
<path d="M23.245,1.6L16.889,13.494L2.667,15.407C0.117,15.749 -0.905,18.65 0.944,20.312L11.233,29.565L8.8,42.636C8.362,44.998 11.058,46.768 13.316,45.663L26.039,39.492L38.761,45.663C41.019,46.759 43.716,44.998 43.278,42.636L40.844,29.565L51.133,20.312C52.982,18.65 51.96,15.749 49.41,15.407L35.189,13.494L28.832,1.6C27.693,-0.52 24.394,-0.547 23.245,1.6Z" fill="#000000" stroke="#000000" stroke-width="1" stroke-miterlimit="3.999327"/>
<path d="M77.168,1.6L70.811,13.494L56.59,15.407C54.04,15.749 53.018,18.65 54.867,20.312L65.156,29.565L62.722,42.636C62.284,44.998 64.981,46.768 67.239,45.663L79.961,39.492L92.684,45.663C94.942,46.759 97.638,44.998 97.2,42.636L94.767,29.565L105.056,20.312C106.905,18.65 105.883,15.749 103.333,15.407L89.111,13.494L82.755,1.6C81.616,-0.52 78.316,-0.547 77.168,1.6Z" fill="#000000" stroke="#000000" stroke-width="1" stroke-miterlimit="3.999327"/>
</svg>
