<svg width="104" height="108" viewBox="0 0 104 108" fill="none" xmlns="http://www.w3.org/2000/svg" xmlns:xlink="http://www.w3.org/1999/xlink">
<path d="M52,0C80.726,0 104,24.169 104,54C104,83.831 80.726,108 52,108C23.274,108 0,83.831 0,54C0,24.169 23.274,0 52,0ZM45.94,31.268L61.771,47.032L23.484,47.032C20.695,47.032 18.452,49.362 18.452,52.258L18.452,55.742C18.452,58.638 20.695,60.968 23.484,60.968L61.771,60.968L45.94,76.732C43.906,78.757 43.865,82.132 45.856,84.201L48.163,86.574C50.134,88.621 53.321,88.621 55.271,86.574L83.095,57.702C85.066,55.655 85.066,52.345 83.095,50.32L55.271,21.404C53.3,19.357 50.113,19.357 48.163,21.404L45.856,23.777C43.865,25.868 43.906,29.243 45.94,31.268Z" transform="rotate(360 52 54)" fill="#000000"/>
</svg>
