<svg width="56" height="50" viewBox="0 0 56 50" fill="none" xmlns="http://www.w3.org/2000/svg" xmlns:xlink="http://www.w3.org/1999/xlink">
<path d="M53.132,16.749L37.84,14.668L31.006,1.739C30.392,0.584 29.193,0 27.995,0C26.804,0 25.614,0.576 24.997,1.739L18.162,14.667L2.868,16.746C0.126,17.117 -0.973,20.271 1.015,22.077L12.078,32.136L9.46,46.343C9.088,48.372 10.821,50 12.762,50C13.277,50 13.807,49.886 14.316,49.634L27.997,42.927L41.677,49.636C42.185,49.885 42.714,49.998 43.227,49.998C45.17,49.998 46.906,48.376 46.534,46.346L43.919,32.138L54.984,22.081C56.974,20.274 55.874,17.12 53.132,16.749ZM40.413,28.78L38.52,30.501L38.967,32.931L41.006,44.01L30.336,38.776L27.998,37.63L28.001,6.654L33.333,16.741L34.501,18.951L37.114,19.307L49.048,20.931L40.413,28.78Z" fill="#000000"/>
</svg>
