<svg width="56" height="52" viewBox="0 0 56 52" fill="none" xmlns="http://www.w3.org/2000/svg" xmlns:xlink="http://www.w3.org/1999/xlink">
<path d="M52.409,17.105L37.307,15.006L30.559,1.97C29.952,0.806 28.769,0.217 27.585,0.217C26.409,0.217 25.234,0.798 24.625,1.97L17.875,15.005L2.772,17.102C0.064,17.476 -1.021,20.655 0.942,22.477L11.867,32.619L9.281,46.944C8.914,48.99 10.626,50.631 12.543,50.631C13.051,50.631 13.574,50.516 14.077,50.262L27.587,43.499L41.097,50.264C41.598,50.515 42.12,50.629 42.627,50.629C44.546,50.629 46.26,48.994 45.893,46.947L43.311,32.621L54.238,22.481C56.202,20.659 55.117,17.479 52.409,17.105ZM39.848,29.236L37.979,30.971L38.42,33.42L40.434,44.591L29.897,39.315L27.588,38.159L27.591,6.926L32.856,17.097L34.01,19.325L36.59,19.683L48.376,21.321L39.848,29.236Z" fill="#000000"/>
</svg>
